<svg xmlns="http://www.w3.org/2000/svg" version="1.1" xmlns:xlink="http://www.w3.org/1999/xlink" xmlns:svgjs="http://svgjs.dev/svgjs" width="2000" height="2250" viewBox="0 0 2000 2250"><g transform="matrix(1,0,0,1,3.410605131648481e-13,0)"><svg viewBox="0 0 320 360" data-background-color="#000000" preserveAspectRatio="xMidYMid meet" height="2250" width="2000" xmlns="http://www.w3.org/2000/svg" xmlns:xlink="http://www.w3.org/1999/xlink"><g id="tight-bounds" transform="matrix(1,0,0,1,0,0)"><svg viewBox="0 0 320 360" height="360" width="320"><rect width="320.0000000000001" height="360" fill="url(#515bc3d4-6efd-466a-b19d-cc96f4f8384d)" mask="url(#ac4a5d7b-9f92-44b0-8834-d25a853926be)" data-fill-palette-color="tertiary"></rect><g><svg></svg></g><g><svg viewBox="0 0 320 360" height="360" width="320"><g><path d="M20.961 227.22l3.726 4.658-1.863-6.056c-0.466-2.795-3.726 0.466-1.863 1.398M25.153 224.425c1.397 2.329 2.795 4.658 2.795 6.987 0 3.261 2.795 4.658 5.123 5.589-3.261-3.726-5.124-13.974-7.918-12.576M204.017 26.929c7.918 0 15.371-0.932 23.756 0.931 20.495 5.124 37.729 15.371 49.374 29.811l32.606 52.169c1.397 13.042 4.192 27.482 3.726 43.319 3.261 0 2.795-4.658 6.521-5.59-3.726 9.316-5.59 20.961-6.521 34.469-2.329-7.453 0-18.632 0.466-24.687-3.261 5.124-5.124 1.397-5.124-0.932 0.466-3.726-1.397-3.261-2.795-4.658-5.124-4.658-8.384-9.782-12.11-17.7 2.329-6.055 2.795-14.905-4.658-19.563-2.329-1.397-5.124-3.726-6.521-7.453-1.863-5.124-5.124-11.179-4.193-19.097 0.466-2.329-6.987 5.124-11.179 1.863-18.166-12.576-36.332-27.016-58.224-39.127-11.645 0-20.029-4.192-24.221-9.316-3.726-4.658-0.932-10.713 4.658-11.179 3.261 0 6.987-0.932 9.782 0.932 0.466-1.863 2.329-4.192 4.657-4.192M157.904 16.215l0.932 0.466c4.658 0.932 6.987 7.453 12.11 5.124 0 3.261 0.466 6.521-0.466 8.85-1.397 3.726-5.59 3.726-8.85 3.726-31.208-1.863-49.374 11.179-68.471 22.358-5.124 3.261-10.713 5.59-14.906 9.782-20.029 18.632-41.921 35.866-47.045 70.335l-4.192 38.195c-0.466 4.192-5.124 8.384-4.192 13.508l3.26 22.824c-3.261-3.261-5.124 0.932-4.192 2.795 0.466 1.397 2.329 6.055 5.124 1.863 3.726 6.987 7.453 20.495 12.576 26.55 15.837 18.632 36.332 35.4 53.101 52.169 4.192-0.932 7.453-0.932 8.384-3.727 1.397 2.795-1.397 5.59-3.726 6.056 7.453 4.658 15.837 8.85 27.016 9.781 14.44 0.932 27.948 3.261 40.524 6.522 6.521-1.863 13.042-2.795 20.029-3.261 2.329 0 3.726-3.726 6.521-4.658l0.466-4.658c2.795 4.192 2.329-1.397 0.466-4.192 3.261 2.795 4.192 5.124 5.589 6.987 0-1.397 3.726-6.521 3.727-0.466l0.931-6.055c1.397-0.932 1.863 5.124 3.261 0.931 1.397-4.192 4.192-0.932 6.987-2.329-0.932 1.863-0.466 5.59 2.794 3.261l3.727-3.261c2.329 5.59 6.055 3.261 7.918 2.329 20.495-13.042 40.99-28.413 60.553-43.784l-0.466 6.055 2.329-7.453c2.329 2.329 4.192 0.466 5.124-0.931 2.795-4.658 6.521-9.316 12.577-13.508-7.453 20.029-16.303 35.866-27.482 48.908l-4.658 5.59c0 3.261-0.932 7.453-4.658 7.918-1.863 0.466-5.59-0.932-8.384 1.863-1.397 1.863 3.261 5.59-0.466 2.795-3.261-2.329-6.521 0-10.248 0.932-2.795 0.932 1.863 3.726 2.795 5.589 0.932 1.863 1.863 3.726 1.398 6.056l-5.124-5.59c-6.055 3.261-9.782 9.316-14.906 13.974-2.329 1.863-1.397 5.124-1.397 7.918-3.261 0-6.987-0.932-8.85 0.932-1.397 1.863-0.932 4.658-0.932 7.453-4.658-0.466-5.124-7.453-9.315-6.056-4.192 0.932-8.85 1.397-12.577 3.727 2.795 5.59-4.658 2.329-3.726 3.26-6.987-4.192-13.042-7.453-20.495-4.658-15.837-5.124-35.4-2.795-49.84-0.931 0-2.329 0.466-4.658-0.466-5.124-0.932 2.329-3.726 1.397-3.26 1.397-8.85-6.055-17.7-9.782-27.016-14.905-8.384 0.932-16.303-3.261-18.632-5.59-6.521-6.055-13.974-2.795-20.029-4.192-13.042-3.261-17.7-16.769-19.098-26.084-0.932-4.658-4.658-6.521-6.055-6.056-6.055-19.563-15.371-37.263-22.824-55.429-1.863-4.658-1.397-9.316-1.397-14.44 2.329 0.932 4.658 0.466 4.192-2.794-2.329-15.371-7.918-27.016-13.974-38.195 3.261-15.837 3.726-34.469 11.179-48.443 6.521-12.576 18.632-19.098 27.016-29.811 2.795-3.726 2.795-8.85 5.59-12.11 9.316-9.316 18.632-19.098 28.879-27.482 4.658-3.726 10.247 0 17.234-1.397 2.329-8.384 11.645-15.837 20.495-13.508 3.726 0.932 11.179-8.85 13.508-9.782 3.726-1.397 1.863 3.726 1.863 6.987 8.85-6.987 20.961-10.713 32.14-14.906" fill="url(#515bc3d4-6efd-466a-b19d-cc96f4f8384d)" fill-rule="nonzero" stroke="none" stroke-width="1" stroke-linecap="butt" stroke-linejoin="miter" stroke-miterlimit="10" stroke-dasharray="" stroke-dashoffset="0" font-family="none" font-weight="none" font-size="none" text-anchor="none" style="mix-blend-mode: normal" data-fill-palette-color="tertiary"></path></g><g transform="matrix(1,0,0,1,64,155.67100175746924)"><svg viewBox="0 0 192 48.65799648506152" height="48.65799648506152" width="192"><g><svg viewBox="0 0 192 48.65799648506152" height="48.65799648506152" width="192"><g><svg viewBox="0 0 192 48.65799648506152" height="48.65799648506152" width="192"><g id="textblocktransform"><svg viewBox="0 0 192 48.65799648506152" height="48.65799648506152" width="192" id="textblock"><g><svg viewBox="0 0 192 48.65799648506152" height="48.65799648506152" width="192"><g transform="matrix(1,0,0,1,0,0)"><svg width="192" viewBox="3.7 -35.55 142.24 36.05" height="48.65799648506152" data-palette-color="url(#e12095e2-173f-4618-91c3-1911ae9d5567)"><g class="wordmark-text-0" data-fill-palette-color="primary" id="text-0"></g></svg></g></svg></g></svg></g></svg></g></svg></g></svg></g></svg></g><defs></defs><mask id="3c6d147c-5278-41c3-bc8b-094dd238d7c2"><g id="SvgjsG1349"><svg viewBox="0 0 320 360" height="360" width="320"><g><svg></svg></g><g><svg viewBox="0 0 320 360" height="360" width="320"><g><path d="M20.961 227.22l3.726 4.658-1.863-6.056c-0.466-2.795-3.726 0.466-1.863 1.398M25.153 224.425c1.397 2.329 2.795 4.658 2.795 6.987 0 3.261 2.795 4.658 5.123 5.589-3.261-3.726-5.124-13.974-7.918-12.576M204.017 26.929c7.918 0 15.371-0.932 23.756 0.931 20.495 5.124 37.729 15.371 49.374 29.811l32.606 52.169c1.397 13.042 4.192 27.482 3.726 43.319 3.261 0 2.795-4.658 6.521-5.59-3.726 9.316-5.59 20.961-6.521 34.469-2.329-7.453 0-18.632 0.466-24.687-3.261 5.124-5.124 1.397-5.124-0.932 0.466-3.726-1.397-3.261-2.795-4.658-5.124-4.658-8.384-9.782-12.11-17.7 2.329-6.055 2.795-14.905-4.658-19.563-2.329-1.397-5.124-3.726-6.521-7.453-1.863-5.124-5.124-11.179-4.193-19.097 0.466-2.329-6.987 5.124-11.179 1.863-18.166-12.576-36.332-27.016-58.224-39.127-11.645 0-20.029-4.192-24.221-9.316-3.726-4.658-0.932-10.713 4.658-11.179 3.261 0 6.987-0.932 9.782 0.932 0.466-1.863 2.329-4.192 4.657-4.192M157.904 16.215l0.932 0.466c4.658 0.932 6.987 7.453 12.11 5.124 0 3.261 0.466 6.521-0.466 8.85-1.397 3.726-5.59 3.726-8.85 3.726-31.208-1.863-49.374 11.179-68.471 22.358-5.124 3.261-10.713 5.59-14.906 9.782-20.029 18.632-41.921 35.866-47.045 70.335l-4.192 38.195c-0.466 4.192-5.124 8.384-4.192 13.508l3.26 22.824c-3.261-3.261-5.124 0.932-4.192 2.795 0.466 1.397 2.329 6.055 5.124 1.863 3.726 6.987 7.453 20.495 12.576 26.55 15.837 18.632 36.332 35.4 53.101 52.169 4.192-0.932 7.453-0.932 8.384-3.727 1.397 2.795-1.397 5.59-3.726 6.056 7.453 4.658 15.837 8.85 27.016 9.781 14.44 0.932 27.948 3.261 40.524 6.522 6.521-1.863 13.042-2.795 20.029-3.261 2.329 0 3.726-3.726 6.521-4.658l0.466-4.658c2.795 4.192 2.329-1.397 0.466-4.192 3.261 2.795 4.192 5.124 5.589 6.987 0-1.397 3.726-6.521 3.727-0.466l0.931-6.055c1.397-0.932 1.863 5.124 3.261 0.931 1.397-4.192 4.192-0.932 6.987-2.329-0.932 1.863-0.466 5.59 2.794 3.261l3.727-3.261c2.329 5.59 6.055 3.261 7.918 2.329 20.495-13.042 40.99-28.413 60.553-43.784l-0.466 6.055 2.329-7.453c2.329 2.329 4.192 0.466 5.124-0.931 2.795-4.658 6.521-9.316 12.577-13.508-7.453 20.029-16.303 35.866-27.482 48.908l-4.658 5.59c0 3.261-0.932 7.453-4.658 7.918-1.863 0.466-5.59-0.932-8.384 1.863-1.397 1.863 3.261 5.59-0.466 2.795-3.261-2.329-6.521 0-10.248 0.932-2.795 0.932 1.863 3.726 2.795 5.589 0.932 1.863 1.863 3.726 1.398 6.056l-5.124-5.59c-6.055 3.261-9.782 9.316-14.906 13.974-2.329 1.863-1.397 5.124-1.397 7.918-3.261 0-6.987-0.932-8.85 0.932-1.397 1.863-0.932 4.658-0.932 7.453-4.658-0.466-5.124-7.453-9.315-6.056-4.192 0.932-8.85 1.397-12.577 3.727 2.795 5.59-4.658 2.329-3.726 3.26-6.987-4.192-13.042-7.453-20.495-4.658-15.837-5.124-35.4-2.795-49.84-0.931 0-2.329 0.466-4.658-0.466-5.124-0.932 2.329-3.726 1.397-3.26 1.397-8.85-6.055-17.7-9.782-27.016-14.905-8.384 0.932-16.303-3.261-18.632-5.59-6.521-6.055-13.974-2.795-20.029-4.192-13.042-3.261-17.7-16.769-19.098-26.084-0.932-4.658-4.658-6.521-6.055-6.056-6.055-19.563-15.371-37.263-22.824-55.429-1.863-4.658-1.397-9.316-1.397-14.44 2.329 0.932 4.658 0.466 4.192-2.794-2.329-15.371-7.918-27.016-13.974-38.195 3.261-15.837 3.726-34.469 11.179-48.443 6.521-12.576 18.632-19.098 27.016-29.811 2.795-3.726 2.795-8.85 5.59-12.11 9.316-9.316 18.632-19.098 28.879-27.482 4.658-3.726 10.247 0 17.234-1.397 2.329-8.384 11.645-15.837 20.495-13.508 3.726 0.932 11.179-8.85 13.508-9.782 3.726-1.397 1.863 3.726 1.863 6.987 8.85-6.987 20.961-10.713 32.14-14.906" fill="black" fill-rule="nonzero" stroke="none" stroke-width="1" stroke-linecap="butt" stroke-linejoin="miter" stroke-miterlimit="10" stroke-dasharray="" stroke-dashoffset="0" font-family="none" font-weight="none" font-size="none" text-anchor="none" style="mix-blend-mode: normal"></path></g><g transform="matrix(1,0,0,1,64,155.67100175746924)"><svg viewBox="0 0 192 48.65799648506152" height="48.65799648506152" width="192"><g><svg viewBox="0 0 192 48.65799648506152" height="48.65799648506152" width="192"><g><svg viewBox="0 0 192 48.65799648506152" height="48.65799648506152" width="192"><g id="SvgjsG1348"><svg viewBox="0 0 192 48.65799648506152" height="48.65799648506152" width="192" id="SvgjsSvg1347"><g><svg viewBox="0 0 192 48.65799648506152" height="48.65799648506152" width="192"><g transform="matrix(1,0,0,1,0,0)"><svg width="192" viewBox="3.7 -35.55 142.24 36.05" height="48.65799648506152" data-palette-color="url(#e12095e2-173f-4618-91c3-1911ae9d5567)"><g class="wordmark-text-0" data-fill-palette-color="primary" id="SvgjsG1346"><path d="M30.45-1.7Q30.6-1.25 30.6-1.1L30.6-1.1Q30.6-0.3 29.98 0.1 29.35 0.5 28.45 0.5L28.45 0.5Q27.8 0.5 27.3 0.2 26.8-0.1 26.65-0.6L26.65-0.6 24.35-8.35 10.1-8.45 7.65-0.8Q7.25 0.45 5.8 0.45L5.8 0.45Q4.95 0.45 4.33 0 3.7-0.45 3.7-1.15L3.7-1.15Q3.7-1.25 3.8-1.75L3.8-1.75Q8.85-16.55 12.35-27.5L12.35-27.5Q13.15-29.9 13.15-29.9L13.15-29.9Q14.15-32.95 15.15-34.25 16.15-35.55 17.6-35.55L17.6-35.55Q19-35.55 19.9-34.4 20.8-33.25 21.7-30.4L21.7-30.4Q23.6-24.5 26.45-15.1L26.45-15.1 27.3-12.25 28.7-12.25Q29.5-12.25 30.03-11.7 30.55-11.15 30.55-10.3L30.55-10.3Q30.55-8.35 29-8.35L29-8.35 28.45-8.35Q29.6-4.4 30.45-1.7L30.45-1.7ZM11.4-12.45L23.25-12.3 21.75-17.45Q20-23.5 19.05-26.7L19.05-26.7Q18.45-28.7 18.1-29.6 17.75-30.5 17.45-30.5L17.45-30.5Q17.2-30.5 16.9-29.73 16.6-28.95 15.9-26.75L15.9-26.75 13.45-19.05 11.4-12.45ZM61.4-3.25Q62.1-3.15 62.45-2.85 62.8-2.55 62.8-1.75L62.8-1.75Q62.8-1 62.42-0.55 62.05-0.1 61.4-0.1L61.4-0.1Q59.35-0.1 58.37-0.75 57.4-1.4 56.7-3.2L56.7-3.2Q54.45 0.45 48.7 0.45L48.7 0.45Q44.65 0.45 42.15-1.35 39.65-3.15 38.57-5.93 37.5-8.7 37.5-11.8L37.5-11.8Q37.5-15.15 38.85-18.1 40.2-21.05 42.82-22.85 45.45-24.65 49.1-24.65L49.1-24.65Q51.6-24.65 53.45-23.65 55.3-22.65 56.35-20.85L56.35-20.85 56.55-22.5Q56.65-24.35 58.25-24.35L58.25-24.35Q59.25-24.35 59.77-23.88 60.3-23.4 60.2-22.75L60.2-22.75 60.05-21.5Q59.7-19.4 59.55-17.15L59.55-17.15Q59.4-15.25 59.4-12.05L59.4-12.05 59.4-8.6Q59.4-6.45 59.52-5.43 59.65-4.4 60.05-3.85 60.45-3.3 61.4-3.25L61.4-3.25ZM55.6-8.65Q55.65-11 55.65-14.7L55.65-14.7Q55.65-17.15 54.6-18.68 53.55-20.2 52.05-20.85 50.55-21.5 49.2-21.5L49.2-21.5Q46.55-21.5 44.77-20 43-18.5 42.17-16.25 41.35-14 41.35-11.8L41.35-11.8Q41.35-8.3 43.07-5.53 44.8-2.75 48.75-2.75L48.75-2.75Q51.7-2.75 53.62-4.28 55.55-5.8 55.6-8.65L55.6-8.65ZM81.05-25.7Q84.25-25.7 86.05-23.68 87.84-21.65 87.84-18.75L87.84-18.75Q87.84-16 86.2-14.43 84.55-12.85 81.95-12.85L81.95-12.85Q80.95-12.85 80.52-13.15 80.09-13.45 80.09-14.25L80.09-14.25Q80.09-15.55 81.34-15.6L81.34-15.6Q84.59-15.9 84.59-18.8L84.59-18.8Q84.59-20.35 83.75-21.45 82.9-22.55 81-22.55L81-22.55Q79-22.55 77.52-20.85 76.05-19.15 75.2-16.63 74.34-14.1 74.2-11.65L74.2-11.65Q73.9-7.05 73.9-2.95L73.9-2.95Q73.9-0.9 73.52-0.25 73.15 0.4 72.05 0.4L72.05 0.4Q70.95 0.4 70.52-0.13 70.09-0.65 70.09-1.95L70.09-1.95 70.05-11.5Q70.05-14.8 69.55-20.2L69.55-20.2Q69.25-23.35 69.2-24.7L69.2-24.7Q69.15-25.5 69.65-25.93 70.15-26.35 71.05-26.35L71.05-26.35Q72.59-26.35 72.7-24.85L72.7-24.85Q73-21.7 73.05-18.7L73.05-18.7Q73.9-22 76-23.85 78.09-25.7 81.05-25.7L81.05-25.7ZM117.64-3.25Q118.34-3.15 118.69-2.85 119.04-2.55 119.04-1.75L119.04-1.75Q119.04-1 118.67-0.55 118.29-0.1 117.64-0.1L117.64-0.1Q115.59-0.1 114.62-0.75 113.64-1.4 112.94-3.2L112.94-3.2Q110.69 0.45 104.94 0.45L104.94 0.45Q100.89 0.45 98.39-1.35 95.89-3.15 94.82-5.93 93.74-8.7 93.74-11.8L93.74-11.8Q93.74-15.15 95.09-18.1 96.44-21.05 99.07-22.85 101.69-24.65 105.34-24.65L105.34-24.65Q107.84-24.65 109.69-23.65 111.54-22.65 112.59-20.85L112.59-20.85 112.79-22.5Q112.89-24.35 114.49-24.35L114.49-24.35Q115.49-24.35 116.02-23.88 116.54-23.4 116.44-22.75L116.44-22.75 116.29-21.5Q115.94-19.4 115.79-17.15L115.79-17.15Q115.64-15.25 115.64-12.05L115.64-12.05 115.64-8.6Q115.64-6.45 115.77-5.43 115.89-4.4 116.29-3.85 116.69-3.3 117.64-3.25L117.64-3.25ZM111.84-8.65Q111.89-11 111.89-14.7L111.89-14.7Q111.89-17.15 110.84-18.68 109.79-20.2 108.29-20.85 106.79-21.5 105.44-21.5L105.44-21.5Q102.79-21.5 101.02-20 99.24-18.5 98.42-16.25 97.59-14 97.59-11.8L97.59-11.8Q97.59-8.3 99.32-5.53 101.04-2.75 104.99-2.75L104.99-2.75Q107.94-2.75 109.87-4.28 111.79-5.8 111.84-8.65L111.84-8.65ZM134.99-0.3Q133.09-0.3 131.17-3.25 129.24-6.2 127.49-11.2L127.49-11.2Q126.24-14.7 125.37-18.2 124.49-21.7 124.49-23.2L124.49-23.2Q124.49-24.15 125.02-24.63 125.54-25.1 126.44-25.1L126.44-25.1Q127.24-25.1 127.72-24.68 128.19-24.25 128.29-23.5L128.29-23.5Q128.84-19.05 130.79-12.9L130.79-12.9Q131.89-9.65 133.17-7.15 134.44-4.65 134.94-4.65L134.94-4.65Q135.54-4.65 136.79-7.03 138.04-9.4 139.34-12.9L139.34-12.9Q141.69-19.35 142.14-23.7L142.14-23.7Q142.24-24.45 142.74-24.9 143.24-25.35 144.04-25.35L144.04-25.35Q144.94-25.35 145.44-24.8 145.94-24.25 145.94-23.35L145.94-23.35Q145.94-21.8 145.06-18.43 144.19-15.05 142.79-11.4L142.79-11.4Q138.54-0.3 134.99-0.3L134.99-0.3Z" fill="white"></path></g></svg></g></svg></g></svg></g></svg></g></svg></g></svg></g></svg></g><defs><mask></mask></defs></svg><rect width="320" height="360" fill="black" stroke="none" visibility="hidden"></rect></g></mask><linearGradient x1="0.054" x2="0.941" y1="0.5" y2="0.5" id="e12095e2-173f-4618-91c3-1911ae9d5567"><stop stop-color="#0f3054" offset="0"></stop><stop stop-color="#3b8dcb" offset="0.498"></stop><stop stop-color="#0f3054" offset="1"></stop></linearGradient><rect width="320.00000000000006" height="360" fill="url(#e12095e2-173f-4618-91c3-1911ae9d5567)" mask="url(#3c6d147c-5278-41c3-bc8b-094dd238d7c2)" data-fill-palette-color="primary"></rect><mask id="ac4a5d7b-9f92-44b0-8834-d25a853926be"><g id="SvgjsG1375"><svg viewBox="0 0 320 360" height="360" width="320"><g><svg></svg></g><g><svg viewBox="0 0 320 360" height="360" width="320"><g><path d="M20.961 227.22l3.726 4.658-1.863-6.056c-0.466-2.795-3.726 0.466-1.863 1.398M25.153 224.425c1.397 2.329 2.795 4.658 2.795 6.987 0 3.261 2.795 4.658 5.123 5.589-3.261-3.726-5.124-13.974-7.918-12.576M204.017 26.929c7.918 0 15.371-0.932 23.756 0.931 20.495 5.124 37.729 15.371 49.374 29.811l32.606 52.169c1.397 13.042 4.192 27.482 3.726 43.319 3.261 0 2.795-4.658 6.521-5.59-3.726 9.316-5.59 20.961-6.521 34.469-2.329-7.453 0-18.632 0.466-24.687-3.261 5.124-5.124 1.397-5.124-0.932 0.466-3.726-1.397-3.261-2.795-4.658-5.124-4.658-8.384-9.782-12.11-17.7 2.329-6.055 2.795-14.905-4.658-19.563-2.329-1.397-5.124-3.726-6.521-7.453-1.863-5.124-5.124-11.179-4.193-19.097 0.466-2.329-6.987 5.124-11.179 1.863-18.166-12.576-36.332-27.016-58.224-39.127-11.645 0-20.029-4.192-24.221-9.316-3.726-4.658-0.932-10.713 4.658-11.179 3.261 0 6.987-0.932 9.782 0.932 0.466-1.863 2.329-4.192 4.657-4.192M157.904 16.215l0.932 0.466c4.658 0.932 6.987 7.453 12.11 5.124 0 3.261 0.466 6.521-0.466 8.85-1.397 3.726-5.59 3.726-8.85 3.726-31.208-1.863-49.374 11.179-68.471 22.358-5.124 3.261-10.713 5.59-14.906 9.782-20.029 18.632-41.921 35.866-47.045 70.335l-4.192 38.195c-0.466 4.192-5.124 8.384-4.192 13.508l3.26 22.824c-3.261-3.261-5.124 0.932-4.192 2.795 0.466 1.397 2.329 6.055 5.124 1.863 3.726 6.987 7.453 20.495 12.576 26.55 15.837 18.632 36.332 35.4 53.101 52.169 4.192-0.932 7.453-0.932 8.384-3.727 1.397 2.795-1.397 5.59-3.726 6.056 7.453 4.658 15.837 8.85 27.016 9.781 14.44 0.932 27.948 3.261 40.524 6.522 6.521-1.863 13.042-2.795 20.029-3.261 2.329 0 3.726-3.726 6.521-4.658l0.466-4.658c2.795 4.192 2.329-1.397 0.466-4.192 3.261 2.795 4.192 5.124 5.589 6.987 0-1.397 3.726-6.521 3.727-0.466l0.931-6.055c1.397-0.932 1.863 5.124 3.261 0.931 1.397-4.192 4.192-0.932 6.987-2.329-0.932 1.863-0.466 5.59 2.794 3.261l3.727-3.261c2.329 5.59 6.055 3.261 7.918 2.329 20.495-13.042 40.99-28.413 60.553-43.784l-0.466 6.055 2.329-7.453c2.329 2.329 4.192 0.466 5.124-0.931 2.795-4.658 6.521-9.316 12.577-13.508-7.453 20.029-16.303 35.866-27.482 48.908l-4.658 5.59c0 3.261-0.932 7.453-4.658 7.918-1.863 0.466-5.59-0.932-8.384 1.863-1.397 1.863 3.261 5.59-0.466 2.795-3.261-2.329-6.521 0-10.248 0.932-2.795 0.932 1.863 3.726 2.795 5.589 0.932 1.863 1.863 3.726 1.398 6.056l-5.124-5.59c-6.055 3.261-9.782 9.316-14.906 13.974-2.329 1.863-1.397 5.124-1.397 7.918-3.261 0-6.987-0.932-8.85 0.932-1.397 1.863-0.932 4.658-0.932 7.453-4.658-0.466-5.124-7.453-9.315-6.056-4.192 0.932-8.85 1.397-12.577 3.727 2.795 5.59-4.658 2.329-3.726 3.26-6.987-4.192-13.042-7.453-20.495-4.658-15.837-5.124-35.4-2.795-49.84-0.931 0-2.329 0.466-4.658-0.466-5.124-0.932 2.329-3.726 1.397-3.26 1.397-8.85-6.055-17.7-9.782-27.016-14.905-8.384 0.932-16.303-3.261-18.632-5.59-6.521-6.055-13.974-2.795-20.029-4.192-13.042-3.261-17.7-16.769-19.098-26.084-0.932-4.658-4.658-6.521-6.055-6.056-6.055-19.563-15.371-37.263-22.824-55.429-1.863-4.658-1.397-9.316-1.397-14.44 2.329 0.932 4.658 0.466 4.192-2.794-2.329-15.371-7.918-27.016-13.974-38.195 3.261-15.837 3.726-34.469 11.179-48.443 6.521-12.576 18.632-19.098 27.016-29.811 2.795-3.726 2.795-8.85 5.59-12.11 9.316-9.316 18.632-19.098 28.879-27.482 4.658-3.726 10.247 0 17.234-1.397 2.329-8.384 11.645-15.837 20.495-13.508 3.726 0.932 11.179-8.85 13.508-9.782 3.726-1.397 1.863 3.726 1.863 6.987 8.85-6.987 20.961-10.713 32.14-14.906" fill="white" fill-rule="nonzero" stroke="none" stroke-width="1" stroke-linecap="butt" stroke-linejoin="miter" stroke-miterlimit="10" stroke-dasharray="" stroke-dashoffset="0" font-family="none" font-weight="none" font-size="none" text-anchor="none" style="mix-blend-mode: normal"></path></g><g transform="matrix(1,0,0,1,64,155.67100175746924)"><svg viewBox="0 0 192 48.65799648506152" height="48.65799648506152" width="192"><g><svg viewBox="0 0 192 48.65799648506152" height="48.65799648506152" width="192"><g><svg viewBox="0 0 192 48.65799648506152" height="48.65799648506152" width="192"><g id="SvgjsG1374"><svg viewBox="0 0 192 48.65799648506152" height="48.65799648506152" width="192" id="SvgjsSvg1373"><g><svg viewBox="0 0 192 48.65799648506152" height="48.65799648506152" width="192"><g transform="matrix(1,0,0,1,0,0)"><svg width="192" viewBox="3.7 -35.55 142.24 36.05" height="48.65799648506152" data-palette-color="url(#e12095e2-173f-4618-91c3-1911ae9d5567)"><g class="wordmark-text-0" data-fill-palette-color="primary" id="SvgjsG1372"></g></svg></g></svg></g></svg></g></svg></g></svg></g></svg></g></svg></g><defs><mask></mask></defs><mask><g id="SvgjsG1371"><svg viewBox="0 0 320 360" height="360" width="320"><g><svg></svg></g><g><svg viewBox="0 0 320 360" height="360" width="320"><g><path d="M20.961 227.22l3.726 4.658-1.863-6.056c-0.466-2.795-3.726 0.466-1.863 1.398M25.153 224.425c1.397 2.329 2.795 4.658 2.795 6.987 0 3.261 2.795 4.658 5.123 5.589-3.261-3.726-5.124-13.974-7.918-12.576M204.017 26.929c7.918 0 15.371-0.932 23.756 0.931 20.495 5.124 37.729 15.371 49.374 29.811l32.606 52.169c1.397 13.042 4.192 27.482 3.726 43.319 3.261 0 2.795-4.658 6.521-5.59-3.726 9.316-5.59 20.961-6.521 34.469-2.329-7.453 0-18.632 0.466-24.687-3.261 5.124-5.124 1.397-5.124-0.932 0.466-3.726-1.397-3.261-2.795-4.658-5.124-4.658-8.384-9.782-12.11-17.7 2.329-6.055 2.795-14.905-4.658-19.563-2.329-1.397-5.124-3.726-6.521-7.453-1.863-5.124-5.124-11.179-4.193-19.097 0.466-2.329-6.987 5.124-11.179 1.863-18.166-12.576-36.332-27.016-58.224-39.127-11.645 0-20.029-4.192-24.221-9.316-3.726-4.658-0.932-10.713 4.658-11.179 3.261 0 6.987-0.932 9.782 0.932 0.466-1.863 2.329-4.192 4.657-4.192M157.904 16.215l0.932 0.466c4.658 0.932 6.987 7.453 12.11 5.124 0 3.261 0.466 6.521-0.466 8.85-1.397 3.726-5.59 3.726-8.85 3.726-31.208-1.863-49.374 11.179-68.471 22.358-5.124 3.261-10.713 5.59-14.906 9.782-20.029 18.632-41.921 35.866-47.045 70.335l-4.192 38.195c-0.466 4.192-5.124 8.384-4.192 13.508l3.26 22.824c-3.261-3.261-5.124 0.932-4.192 2.795 0.466 1.397 2.329 6.055 5.124 1.863 3.726 6.987 7.453 20.495 12.576 26.55 15.837 18.632 36.332 35.4 53.101 52.169 4.192-0.932 7.453-0.932 8.384-3.727 1.397 2.795-1.397 5.59-3.726 6.056 7.453 4.658 15.837 8.85 27.016 9.781 14.44 0.932 27.948 3.261 40.524 6.522 6.521-1.863 13.042-2.795 20.029-3.261 2.329 0 3.726-3.726 6.521-4.658l0.466-4.658c2.795 4.192 2.329-1.397 0.466-4.192 3.261 2.795 4.192 5.124 5.589 6.987 0-1.397 3.726-6.521 3.727-0.466l0.931-6.055c1.397-0.932 1.863 5.124 3.261 0.931 1.397-4.192 4.192-0.932 6.987-2.329-0.932 1.863-0.466 5.59 2.794 3.261l3.727-3.261c2.329 5.59 6.055 3.261 7.918 2.329 20.495-13.042 40.99-28.413 60.553-43.784l-0.466 6.055 2.329-7.453c2.329 2.329 4.192 0.466 5.124-0.931 2.795-4.658 6.521-9.316 12.577-13.508-7.453 20.029-16.303 35.866-27.482 48.908l-4.658 5.59c0 3.261-0.932 7.453-4.658 7.918-1.863 0.466-5.59-0.932-8.384 1.863-1.397 1.863 3.261 5.59-0.466 2.795-3.261-2.329-6.521 0-10.248 0.932-2.795 0.932 1.863 3.726 2.795 5.589 0.932 1.863 1.863 3.726 1.398 6.056l-5.124-5.59c-6.055 3.261-9.782 9.316-14.906 13.974-2.329 1.863-1.397 5.124-1.397 7.918-3.261 0-6.987-0.932-8.85 0.932-1.397 1.863-0.932 4.658-0.932 7.453-4.658-0.466-5.124-7.453-9.315-6.056-4.192 0.932-8.85 1.397-12.577 3.727 2.795 5.59-4.658 2.329-3.726 3.26-6.987-4.192-13.042-7.453-20.495-4.658-15.837-5.124-35.4-2.795-49.84-0.931 0-2.329 0.466-4.658-0.466-5.124-0.932 2.329-3.726 1.397-3.26 1.397-8.85-6.055-17.7-9.782-27.016-14.905-8.384 0.932-16.303-3.261-18.632-5.59-6.521-6.055-13.974-2.795-20.029-4.192-13.042-3.261-17.7-16.769-19.098-26.084-0.932-4.658-4.658-6.521-6.055-6.056-6.055-19.563-15.371-37.263-22.824-55.429-1.863-4.658-1.397-9.316-1.397-14.44 2.329 0.932 4.658 0.466 4.192-2.794-2.329-15.371-7.918-27.016-13.974-38.195 3.261-15.837 3.726-34.469 11.179-48.443 6.521-12.576 18.632-19.098 27.016-29.811 2.795-3.726 2.795-8.85 5.59-12.11 9.316-9.316 18.632-19.098 28.879-27.482 4.658-3.726 10.247 0 17.234-1.397 2.329-8.384 11.645-15.837 20.495-13.508 3.726 0.932 11.179-8.85 13.508-9.782 3.726-1.397 1.863 3.726 1.863 6.987 8.85-6.987 20.961-10.713 32.14-14.906" fill="black" fill-rule="nonzero" stroke="none" stroke-width="1" stroke-linecap="butt" stroke-linejoin="miter" stroke-miterlimit="10" stroke-dasharray="" stroke-dashoffset="0" font-family="none" font-weight="none" font-size="none" text-anchor="none" style="mix-blend-mode: normal"></path></g><g transform="matrix(1,0,0,1,64,155.67100175746924)"><svg viewBox="0 0 192 48.65799648506152" height="48.65799648506152" width="192"><g><svg viewBox="0 0 192 48.65799648506152" height="48.65799648506152" width="192"><g><svg viewBox="0 0 192 48.65799648506152" height="48.65799648506152" width="192"><g id="SvgjsG1370"><svg viewBox="0 0 192 48.65799648506152" height="48.65799648506152" width="192" id="SvgjsSvg1369"><g><svg viewBox="0 0 192 48.65799648506152" height="48.65799648506152" width="192"><g transform="matrix(1,0,0,1,0,0)"><svg width="192" viewBox="3.7 -35.55 142.24 36.05" height="48.65799648506152" data-palette-color="url(#e12095e2-173f-4618-91c3-1911ae9d5567)"><g class="wordmark-text-0" data-fill-palette-color="primary" id="SvgjsG1368"><path d="M30.45-1.7Q30.6-1.25 30.6-1.1L30.6-1.1Q30.6-0.3 29.98 0.1 29.35 0.5 28.45 0.5L28.45 0.5Q27.8 0.5 27.3 0.2 26.8-0.1 26.65-0.6L26.65-0.6 24.35-8.35 10.1-8.45 7.65-0.8Q7.25 0.45 5.8 0.45L5.8 0.45Q4.95 0.45 4.33 0 3.7-0.45 3.7-1.15L3.7-1.15Q3.7-1.25 3.8-1.75L3.8-1.75Q8.85-16.55 12.35-27.5L12.35-27.5Q13.15-29.9 13.15-29.9L13.15-29.9Q14.15-32.95 15.15-34.25 16.15-35.55 17.6-35.55L17.6-35.55Q19-35.55 19.9-34.4 20.8-33.25 21.7-30.4L21.7-30.4Q23.6-24.5 26.45-15.1L26.45-15.1 27.3-12.25 28.7-12.25Q29.5-12.25 30.03-11.7 30.55-11.15 30.55-10.3L30.55-10.3Q30.55-8.35 29-8.35L29-8.35 28.45-8.35Q29.6-4.4 30.45-1.7L30.45-1.7ZM11.4-12.45L23.25-12.3 21.75-17.45Q20-23.5 19.05-26.7L19.05-26.7Q18.45-28.7 18.1-29.6 17.75-30.5 17.45-30.5L17.45-30.5Q17.2-30.5 16.9-29.73 16.6-28.95 15.9-26.75L15.9-26.75 13.45-19.05 11.4-12.45ZM61.4-3.25Q62.1-3.15 62.45-2.85 62.8-2.55 62.8-1.75L62.8-1.75Q62.8-1 62.42-0.55 62.05-0.1 61.4-0.1L61.4-0.1Q59.35-0.1 58.37-0.75 57.4-1.4 56.7-3.2L56.7-3.2Q54.45 0.45 48.7 0.45L48.7 0.45Q44.65 0.45 42.15-1.35 39.65-3.15 38.57-5.93 37.5-8.7 37.5-11.8L37.5-11.8Q37.5-15.15 38.85-18.1 40.2-21.05 42.82-22.85 45.45-24.65 49.1-24.65L49.1-24.65Q51.6-24.65 53.45-23.65 55.3-22.65 56.35-20.85L56.35-20.85 56.55-22.5Q56.65-24.35 58.25-24.35L58.25-24.35Q59.25-24.35 59.77-23.88 60.3-23.4 60.2-22.75L60.2-22.75 60.05-21.5Q59.7-19.4 59.55-17.15L59.55-17.15Q59.4-15.25 59.4-12.05L59.4-12.05 59.4-8.6Q59.4-6.45 59.52-5.43 59.65-4.4 60.05-3.85 60.45-3.3 61.4-3.25L61.4-3.25ZM55.6-8.65Q55.65-11 55.65-14.7L55.65-14.7Q55.65-17.15 54.6-18.68 53.55-20.2 52.05-20.85 50.55-21.5 49.2-21.5L49.2-21.5Q46.55-21.5 44.77-20 43-18.5 42.17-16.25 41.35-14 41.35-11.8L41.35-11.8Q41.35-8.3 43.07-5.53 44.8-2.75 48.75-2.75L48.75-2.75Q51.7-2.75 53.62-4.28 55.55-5.8 55.6-8.65L55.6-8.65ZM81.05-25.7Q84.25-25.7 86.05-23.68 87.84-21.65 87.84-18.75L87.84-18.75Q87.84-16 86.2-14.43 84.55-12.85 81.95-12.85L81.95-12.85Q80.95-12.85 80.52-13.15 80.09-13.45 80.09-14.25L80.09-14.25Q80.09-15.55 81.34-15.6L81.34-15.6Q84.59-15.9 84.59-18.8L84.59-18.8Q84.59-20.35 83.75-21.45 82.9-22.55 81-22.55L81-22.55Q79-22.55 77.52-20.85 76.05-19.15 75.2-16.63 74.34-14.1 74.2-11.65L74.2-11.65Q73.9-7.05 73.9-2.95L73.9-2.95Q73.9-0.9 73.52-0.25 73.15 0.4 72.05 0.4L72.05 0.4Q70.95 0.4 70.52-0.13 70.09-0.65 70.09-1.95L70.09-1.95 70.05-11.5Q70.05-14.8 69.55-20.2L69.55-20.2Q69.25-23.35 69.2-24.7L69.2-24.7Q69.15-25.5 69.65-25.93 70.15-26.35 71.05-26.35L71.05-26.35Q72.59-26.35 72.7-24.85L72.7-24.85Q73-21.7 73.05-18.7L73.05-18.7Q73.9-22 76-23.85 78.09-25.7 81.05-25.7L81.05-25.7ZM117.64-3.25Q118.34-3.15 118.69-2.85 119.04-2.55 119.04-1.75L119.04-1.75Q119.04-1 118.67-0.55 118.29-0.1 117.64-0.1L117.64-0.1Q115.59-0.1 114.62-0.75 113.64-1.4 112.94-3.2L112.94-3.2Q110.69 0.45 104.94 0.45L104.94 0.45Q100.89 0.45 98.39-1.35 95.89-3.15 94.82-5.93 93.74-8.7 93.74-11.8L93.74-11.8Q93.74-15.15 95.09-18.1 96.44-21.05 99.07-22.85 101.69-24.65 105.34-24.65L105.34-24.65Q107.84-24.65 109.69-23.65 111.54-22.65 112.59-20.85L112.59-20.85 112.79-22.5Q112.89-24.35 114.49-24.35L114.49-24.35Q115.49-24.35 116.02-23.88 116.54-23.4 116.44-22.75L116.44-22.75 116.29-21.5Q115.94-19.4 115.79-17.15L115.79-17.15Q115.64-15.25 115.64-12.05L115.64-12.05 115.64-8.6Q115.64-6.45 115.77-5.43 115.89-4.4 116.29-3.85 116.69-3.3 117.64-3.25L117.64-3.25ZM111.84-8.65Q111.89-11 111.89-14.7L111.89-14.7Q111.89-17.15 110.84-18.68 109.79-20.2 108.29-20.85 106.79-21.5 105.44-21.5L105.44-21.5Q102.79-21.5 101.02-20 99.24-18.5 98.42-16.25 97.59-14 97.59-11.8L97.59-11.8Q97.59-8.3 99.32-5.53 101.04-2.75 104.99-2.75L104.99-2.75Q107.94-2.75 109.87-4.28 111.79-5.8 111.84-8.65L111.84-8.65ZM134.99-0.3Q133.09-0.3 131.17-3.25 129.24-6.2 127.49-11.2L127.49-11.2Q126.24-14.7 125.37-18.2 124.49-21.7 124.49-23.2L124.49-23.2Q124.49-24.15 125.02-24.63 125.54-25.1 126.44-25.1L126.44-25.1Q127.24-25.1 127.72-24.68 128.19-24.25 128.29-23.5L128.29-23.5Q128.84-19.05 130.79-12.9L130.79-12.9Q131.89-9.65 133.17-7.15 134.44-4.65 134.94-4.65L134.94-4.65Q135.54-4.65 136.79-7.03 138.04-9.4 139.34-12.9L139.34-12.9Q141.69-19.35 142.14-23.7L142.14-23.7Q142.24-24.45 142.74-24.9 143.24-25.35 144.04-25.35L144.04-25.35Q144.94-25.35 145.44-24.8 145.94-24.25 145.94-23.35L145.94-23.35Q145.94-21.8 145.06-18.43 144.19-15.05 142.79-11.4L142.79-11.4Q138.54-0.3 134.99-0.3L134.99-0.3Z" fill="black"></path></g></svg></g></svg></g></svg></g></svg></g></svg></g></svg></g></svg></g><defs><mask></mask></defs></svg><rect width="320" height="360" fill="black" stroke="none" visibility="hidden"></rect></g></mask></svg><rect width="320" height="360" fill="black" stroke="none" visibility="hidden"></rect></g></mask><linearGradient x1="0.054" x2="0.941" y1="0.5" y2="0.5" id="515bc3d4-6efd-466a-b19d-cc96f4f8384d"><stop stop-color="#0f3054" offset="0"></stop><stop stop-color="#3b8dcb" offset="0.498"></stop><stop stop-color="#0f3054" offset="1"></stop></linearGradient></svg><rect width="320" height="360" fill="none" stroke="none" visibility="hidden"></rect></g></svg></g></svg>